<mxfile host="app.diagrams.net" modified="2024-05-07T07:49:47.150Z" agent="Mozilla/5.0 (Windows NT 10.0; Win64; x64) AppleWebKit/537.36 (KHTML, like Gecko) Chrome/124.0.0.0 Safari/537.36 Edg/124.0.0.0" version="24.2.8" etag="VFuUuX2ri1P-o4jplJEW" type="github">
  <diagram name="第 1 页" id="Sul3tgi23-4hBaaTVPRD">
    <mxGraphModel>
      <root>
        <mxCell id="0" />
        <mxCell id="1" parent="0" />
      </root>
    </mxGraphModel>
  </diagram>
</mxfile>
